<svg width="100" height="114" viewBox="0 0 100 114" fill="none" xmlns="http://www.w3.org/2000/svg">
<path d="M88.2857 0H11.7143C5.25714 0 0 5.23633 0 11.7248V88.6761C0 95.1646 5.25714 100.401 11.7143 100.401H76.5143L73.4857 89.8714L80.8 96.6444L87.7143 103.019L100 113.833V11.7248C100 5.23633 94.7429 0 88.2857 0ZM66.2286 74.3331C66.2286 74.3331 64.1714 71.8857 62.4571 69.7229C69.9429 67.617 72.8 62.9498 72.8 62.9498C70.4571 64.4865 68.2286 65.568 66.2286 66.3079C63.3714 67.5031 60.6286 68.3 57.9429 68.7553C52.4571 69.7798 47.4286 69.4952 43.1429 68.6984C39.8857 68.0723 37.0857 67.1616 34.7429 66.251C33.4286 65.7387 32 65.1126 30.5714 64.3158C30.4 64.202 30.2286 64.145 30.0571 64.0312C29.9429 63.9743 29.8857 63.9174 29.8286 63.8605C28.8 63.2913 28.2286 62.8929 28.2286 62.8929C28.2286 62.8929 30.9714 67.4462 38.2286 69.609C36.5143 71.7719 34.4 74.3331 34.4 74.3331C21.7714 73.9347 16.9714 65.6818 16.9714 65.6818C16.9714 47.3546 25.2 32.4994 25.2 32.4994C33.4286 26.3524 41.2571 26.5231 41.2571 26.5231L41.8286 27.2061C31.5429 30.1658 26.8 34.6622 26.8 34.6622C26.8 34.6622 28.0571 33.9792 30.1714 33.0116C36.2857 30.3366 41.1429 29.5966 43.1429 29.4259C43.4857 29.369 43.7714 29.3121 44.1143 29.3121C47.6 28.8567 51.5429 28.7429 55.6571 29.1982C61.0857 29.8243 66.9143 31.418 72.8571 34.6622C72.8571 34.6622 68.3429 30.3935 58.6286 27.4338L59.4286 26.5231C59.4286 26.5231 67.2571 26.3524 75.4857 32.4994C75.4857 32.4994 83.7143 47.3546 83.7143 65.6818C83.7143 65.6818 78.8571 73.9347 66.2286 74.3331ZM39.6571 47.753C36.4 47.753 33.8286 50.5989 33.8286 54.0708C33.8286 57.5427 36.4571 60.3885 39.6571 60.3885C42.9143 60.3885 45.4857 57.5427 45.4857 54.0708C45.5429 50.5989 42.9143 47.753 39.6571 47.753ZM60.5143 47.753C57.2571 47.753 54.6857 50.5989 54.6857 54.0708C54.6857 57.5427 57.3143 60.3885 60.5143 60.3885C63.7714 60.3885 66.3429 57.5427 66.3429 54.0708C66.3429 50.5989 63.7714 47.753 60.5143 47.753Z" fill="black"/>
</svg>
