<svg width="100" height="82" viewBox="0 0 100 82" fill="none" xmlns="http://www.w3.org/2000/svg">
<path d="M100 9.98766C96.3208 11.621 92.3667 12.721 88.2167 13.2168C92.4542 10.6793 95.7083 6.65849 97.2375 1.86682C93.275 4.21682 88.8833 5.92516 84.2083 6.84599C80.4708 2.85849 75.1333 0.366821 69.2333 0.366821C55.9875 0.366821 46.2542 12.7252 49.2458 25.5543C32.2 24.7002 17.0833 16.5335 6.9625 4.12099C1.5875 13.3418 4.175 25.4043 13.3083 31.5127C9.95 31.4043 6.78333 30.4835 4.02083 28.946C3.79583 38.4502 10.6083 47.3418 20.475 49.321C17.5875 50.1043 14.425 50.2877 11.2083 49.671C13.8167 57.821 21.3917 63.7502 30.375 63.9168C21.75 70.6793 10.8833 73.7002 0 72.4168C9.07917 78.2377 19.8667 81.6335 31.45 81.6335C69.5417 81.6335 91.0625 49.4627 89.7625 20.6085C93.7708 17.7127 97.25 14.1002 100 9.98766V9.98766Z" fill="black"/>
</svg>
